<?xml version="1.0" encoding="utf-8"?>
<!-- Generator: Adobe Illustrator 19.0.0, SVG Export Plug-In . SVG Version: 6.00 Build 0)  -->
<svg version="1.1" id="Layer_1" xmlns="http://www.w3.org/2000/svg" xmlns:xlink="http://www.w3.org/1999/xlink" x="0px" y="0px"
	 viewBox="-199 81 560 400" style="enable-background:new -199 81 560 400;" xml:space="preserve">
<style type="text/css">
	.st0{fill:#100F0D;}
	.st1{fill:#231F20;}
</style>
<g id="text">
	<path class="st0" d="M66.7,291.6c-2.3,0.5-3.5-0.2-3.5-1.7c0-2.1,2.2-3,5.3-3c1.4,0,2.7,0.1,2.7,0.1
		C71.2,288,69.2,291.1,66.7,291.6z M69.1,270.4c-7.5,0-12.9,2.8-12.9,2.8v8.1c0,0,5.9-3.4,10.7-3.4c3.8,0,4.3,2.1,4.1,3.8
		c0,0-1.1-0.3-4.5-0.3c-8,0-12,3.6-12,9.4c0,5.5,4.5,7.8,8.3,7.8c5.6,0,8-3.7,8.7-5.5c0.5-1.2,0.6-2.1,1.1-2.1
		c0.5,0,0.4,0.6,0.3,1.8c0,2.1,0.1,3.8,0.4,5.1h7.4v-13.2C80.9,276.4,77.9,270.4,69.1,270.4"/>
	<path class="st0" d="M117.5,284.5c0-2.4,2.2-4.6,6.4-4.6c4.5,0,8.1,2.2,8.9,2.7v-9.4c0,0-2.9-2.8-9.9-2.8
		c-7.4,0-13.6,4.3-13.6,13.7c0,9.3,5.6,14.5,13.6,14.5c6.2,0,9.9-3.4,9.9-3.4v-8.9c-1.2,0.7-4.4,2.9-8.9,2.9
		C119.2,289.2,117.5,287,117.5,284.5L117.5,284.5z M19.1,271c0,0,0.5,2-0.1,4.6c-0.3,1.3-0.9,2.5-0.2,2.5c0.5,0,0.5-0.4,1.1-1.8
		c0.9-2.1,2.9-5.9,7.4-5.9c4.3,0,6.3,2.6,7,5.1c0.5,1.9,0.1,2.7,0.7,2.7c0.4,0,0.6-1,1.1-2.2c1-2.2,3.1-5.6,7.4-5.6
		c6.5,0,9,4.7,9,11.7v15.8h-9.6v-14.6c0-2.4-0.4-4.8-2.6-4.8c-2.1,0-3,3.6-3,6V298h-9.8v-14.6c0-3.1-0.4-4.8-2.6-4.8
		c-1.9,0-3,3.4-3,6v13.4H12V271L19.1,271L19.1,271z M84.1,271.1c0,0,1.7,1,4.9,1c3.2,0,4.9-1,4.9-1V298h-9.8V271.1z M164.7,271.1
		c0,0,1.7,1,4.9,1c3.2,0,4.9-1,4.9-1V298h-9.8V271.1z M106.8,262.9V298H97v-35.1H106.8z M144.5,262.9c0,0,0.4,1,0.4,4
		c0,4.4-1,8-1.4,9.4c-0.2,0.7-0.7,1.8-0.1,1.9c0.4,0,0.6-0.5,1-1.5c0.4-0.9,2.6-6.3,8.2-6.3c7.8,0,8.9,6.4,8.9,13.3V298h-9.8v-14.8
		c0-3-0.6-4.6-2.7-4.6c-2.5,0-3.3,3.8-3.3,6V298H136v-35.1L144.5,262.9L144.5,262.9z M185,271c0,0,0.5,2-0.1,4.6
		c-0.3,1.3-0.9,2.5-0.2,2.5c0.5,0,0.5-0.4,1.1-1.8c0.9-2.1,2.9-5.9,7.4-5.9c4.5,0,6.3,2.6,7,5.1c0.5,1.6,0.1,2.7,0.7,2.7
		c0.4,0,0.6-1,1.1-2.2c1-2.2,3.1-5.6,7.4-5.6c6.5,0,9,4.7,9,11.7v15.8h-9.6v-14.6c0-2.4-0.4-4.8-2.6-4.8c-2.1,0-3,3.6-3,6V298h-9.8
		v-14.6c0-3.1-0.4-4.8-2.6-4.8c-1.9,0-3,3.4-3,6v13.4h-9.8V271L185,271L185,271z M88.9,262.6c-3.3,0-6,1.7-6,3.9s2.7,3.9,6,3.9
		c3.3,0,6-1.7,6-3.9S92.2,262.6,88.9,262.6z M169.6,262.6c-3.3,0-6,1.7-6,3.9s2.7,3.9,6,3.9c3.3,0,6-1.7,6-3.9
		S172.9,262.6,169.6,262.6z"/>
	<path class="st0" d="M234.9,292.2c-2.2,0-3.9-2.8-3.9-6.8c0-3.8,1.7-6.8,3.8-6.8c2.7,0,3.9,2.5,3.9,6.8
		C238.7,289.8,237.7,292.2,234.9,292.2L234.9,292.2z M237.6,270.4c-5,0-7.3,3.8-8.3,5.9c-0.7,1.4-0.6,1.8-1.1,1.8
		c-0.7,0-0.1-1.1,0.2-2.5c0.6-2.6,0.1-4.6,0.1-4.6h-7.2v34.3h9.8v-10.9c1.2,2,3.3,4.1,6.6,4.1c7.1,0,10.6-6,10.6-14.1
		C248.4,275.3,244.1,270.4,237.6,270.4"/>
</g>
<g id="head">
	<path class="st1" d="M-22.6,278.5c0.7-0.1,1.3-0.1,1.9,0c0.3-0.8,0.4-2.1,0.1-3.5c-0.4-2.1-1.1-3.4-2.3-3.2s-1.3,1.8-0.9,3.9
		C-23.5,276.9-23.1,277.9-22.6,278.5"/>
	<path class="st1" d="M-33.3,280.2c0.9,0.4,1.4,0.7,1.7,0.4c0.1-0.1,0.1-0.4-0.1-0.8c-0.4-0.7-1.4-1.5-2.3-1.9
		c-2-0.8-4.3-0.6-6.1,0.7c-0.6,0.4-1.2,1-1.1,1.4c0,0.1,0.1,0.2,0.3,0.2c0.5,0.1,2.2-0.8,4.2-0.9C-35.4,279.4-34.2,279.8-33.3,280.2
		"/>
	<path class="st1" d="M-35.1,281.3c-1.2,0.2-1.8,0.6-2.2,0.9c-0.4,0.3-0.6,0.6-0.6,0.9c0,0.1,0.1,0.2,0.1,0.2c0.1,0,0.1,0.1,0.2,0.1
		c0.3,0,0.9-0.2,0.9-0.2c1.6-0.6,2.7-0.5,3.8-0.4c0.6,0.1,0.9,0.1,1-0.1c0-0.1,0.1-0.2,0-0.4C-32.3,281.8-33.5,281.1-35.1,281.3"/>
	<path class="st1" d="M-26.2,285c0.8,0.4,1.7,0.2,1.9-0.3s-0.1-1.4-0.9-1.8s-1.7-0.2-1.9,0.3C-27.4,283.9-27,284.6-26.2,285"/>
	<path class="st1" d="M-21.1,280.6c-0.6,0-1.2,0.7-1.2,1.6s0.5,1.6,1.1,1.6c0.6,0,1.2-0.7,1.2-1.6C-20,281.3-20.5,280.6-21.1,280.6"
		/>
	<path class="st1" d="M-64.3,296.5c-0.2-0.2-0.4-0.1-0.7-0.1c-0.2,0-0.4,0.1-0.6,0.1c-0.5,0-0.9-0.2-1.1-0.6c-0.3-0.4-0.3-1.1,0-1.9
		l0.2-0.3c0.5-1.2,1.4-3.1,0.4-4.9c-0.7-1.4-1.9-2.3-3.4-2.4c-1.4-0.2-2.8,0.3-3.7,1.3c-1.4,1.6-1.6,3.7-1.4,4.5
		c0.1,0.3,0.3,0.4,0.4,0.4c0.2,0,0.6-0.1,0.8-0.7l0.1-0.2c0.1-0.3,0.3-0.9,0.6-1.4c0.4-0.6,0.9-1,1.6-1.1c0.7-0.1,1.4,0,2,0.4
		c1,0.7,1.4,1.9,1,3c-0.2,0.6-0.6,1.8-0.5,2.7c0.2,1.9,1.3,2.7,2.4,2.8c1,0,1.8-0.5,1.9-1C-64.2,296.7-64.3,296.6-64.3,296.5"/>
	<path class="st1" d="M-54.5,261.3c3.4-3.9,7.5-7.3,11.2-9.2c0.1-0.1,0.3,0.1,0.2,0.2c-0.3,0.5-0.9,1.7-1,2.5c0,0.1,0.1,0.2,0.2,0.2
		c2.3-1.6,6.3-3.3,9.8-3.5c0.2,0,0.2,0.2,0.1,0.3c-0.5,0.4-1.1,1-1.5,1.6c-0.1,0.1,0,0.2,0.1,0.2c2.5,0,5.9,0.9,8.2,2.2
		c0.2,0.1,0,0.4-0.1,0.3c-3.4-0.8-9.1-1.4-14.9,0c-5.2,1.3-9.2,3.2-12.1,5.3C-54.5,261.6-54.6,261.4-54.5,261.3L-54.5,261.3z
		 M-37.8,298.9L-37.8,298.9L-37.8,298.9L-37.8,298.9z M-23.9,300.5c0.1,0,0.2-0.2,0.2-0.3c0-0.1-0.1-0.2-0.3-0.2
		c0,0-7.2,1.1-13.9-1.4c0.7-2.4,2.7-1.5,5.7-1.3c5.3,0.3,10.1-0.5,13.7-1.5c3.1-0.9,7.1-2.6,10.2-5.1c1.1,2.3,1.4,4.9,1.4,4.9
		s0.8-0.1,1.5,0.3c0.6,0.4,1.1,1.2,0.8,3.4c-0.7,4-2.4,7.2-5.2,10.2c-1.7,1.9-3.8,3.5-6.2,4.7c-1.3,0.7-2.6,1.3-4.1,1.7
		c-10.7,3.5-21.7-0.3-25.3-8.6c-0.3-0.6-0.5-1.3-0.7-2c-1.5-5.5-0.2-12,3.8-16.1v0c0.2-0.3,0.5-0.6,0.5-1c0-0.3-0.2-0.7-0.4-0.9
		c-1.4-2-6.3-5.5-5.3-12.2c0.7-4.8,4.9-8.2,8.8-8l1,0.1c1.7,0.1,3.2,0.3,4.6,0.4c2.3,0.1,4.5-0.2,7-2.3c0.8-0.7,1.5-1.3,2.7-1.5
		c0.1,0,0.4-0.1,1-0.1c0.6,0,1.2,0.2,1.7,0.5c2,1.3,2.3,4.6,2.4,6.9c0.1,1.3,0.2,4.6,0.3,5.5c0.1,2.1,0.7,2.4,1.8,2.8
		c0.6,0.2,1.2,0.4,2.1,0.6c2.6,0.7,4.2,1.5,5.2,2.5c0.6,0.6,0.9,1.3,1,1.9c0.3,2.3-1.8,5.1-7.3,7.7c-6,2.8-13.3,3.5-18.4,2.9
		l-1.8-0.2c-4-0.5-6.3,4.7-3.9,8.3c1.6,2.3,5.8,3.8,10.1,3.8c9.8,0,17.3-4.2,20.1-7.8l0.2-0.3c0.1-0.2,0-0.3-0.1-0.2
		c-2.3,1.6-12.4,7.8-23.3,5.9c0,0-1.3-0.2-2.5-0.7c-1-0.4-3-1.3-3.2-3.3C-29.4,303.1-23.9,300.5-23.9,300.5L-23.9,300.5z M-72,279.7
		c-3,0.6-5.7,2.3-7.4,4.7c-1-0.8-2.8-2.4-3.1-3c-2.6-5,2.9-14.6,6.7-20.1c9.4-13.5,24.3-23.7,31.1-21.8c1.1,0.3,4.8,4.6,4.8,4.6
		s-6.8,3.8-13.2,9.1C-61.6,259.8-68.1,269.3-72,279.7L-72,279.7z M-66.9,302.5c-0.5,0.1-0.9,0.1-1.4,0.1c-4.6-0.1-9.5-4.2-10-9.1
		c-0.5-5.4,2.2-9.6,7.1-10.5c0.6-0.1,1.3-0.2,2.1-0.1c2.7,0.1,6.8,2.3,7.7,8.2C-60.6,296.3-61.9,301.7-66.9,302.5L-66.9,302.5z
		 M-4.9,293c0-0.1-0.3-1.1-0.6-2.2c-0.4-1.1-0.7-1.9-0.7-1.9c1.4-2.1,1.4-4,1.2-5.1c-0.2-1.3-0.8-2.5-1.9-3.6
		c-1.1-1.2-3.4-2.4-6.6-3.3l-1.7-0.5c0-0.1-0.1-3.9-0.2-5.6c-0.1-1.2-0.2-3.1-0.7-4.9c-0.7-2.5-1.9-4.7-3.4-6.1
		c4.2-4.3,6.8-9.1,6.8-13.2c0-7.9-9.7-10.2-21.5-5.3l-2.5,1.1c0,0-4.6-4.5-4.6-4.5c-13.6-11.8-55.9,35.3-42.4,46.7l3,2.5
		c-0.8,2-1.1,4.3-0.8,6.7c0.3,3.1,1.9,6.2,4.6,8.5c2.5,2.2,5.8,3.6,9,3.6c5.3,12.2,17.3,19.6,31.4,20c15.2,0.5,27.9-6.7,33.2-19.4
		c0.3-0.9,1.8-4.9,1.8-8.5C-1.6,294.5-3.6,293-4.9,293"/>
</g>
</svg>
